<svg xmlns="http://www.w3.org/2000/svg" viewBox="-132.673 -484.206 2872.329 1182.425"><g xmlns="http://www.w3.org/2000/svg" mask="url(#mask0_6014_38418)"><path fill="url(#paint0_linear_6014_38418)" d="m-108.781 586.967 928.206-331.661a36 36 0 0 1 36.448 7.371l406.677 373.011c24.44 22.42 8.13 63.164-25.03 62.523L-15.621 673.988a35.966 35.966 0 0 1-6.687-.758l-81.743-17.127c-35.564-7.452-38.948-56.909-4.73-69.136Z"/><path fill="url(#paint1_linear_6014_38418)" d="M953.266 8.381 518.582 205.407a36 36 0 0 1-35.305-3.156L201.521 7.874c-29.02-20.02-14.945-65.502 20.31-65.633l716.44-2.648c38.81-.144 50.344 52.766 14.995 68.788Z"/><path fill="url(#paint2_linear_6014_38418)" d="M463.711 346.628 1.842 19.015C-21.328 2.58-53.514 18.199-54.94 46.57l-11.121 221.185c-.88 17.495 10.961 33.084 28.051 36.929l472.99 106.429c38.374 8.635 60.813-41.729 28.731-64.485Z"/><path fill="url(#paint3_linear_6014_38418)" d="m1738.04 76.606-528.48 185.367a36.002 36.002 0 0 1-35.27-6.573L812.328-53.122c-27.386-23.342-7.361-67.988 28.284-63.058L1731.05 6.975c37.42 5.175 42.63 57.13 6.99 69.631Z"/><path fill="url(#paint4_linear_6014_38418)" d="m2729.89-423.602-902.46 978.463c-13.31 14.427-35.72 15.538-50.39 2.496l-479.13-426.011c-19.99-17.782-14.29-50.394 10.56-60.33l1381.59-552.452c35.6-14.237 65.82 29.647 39.83 57.834Z"/></g></svg>