<svg xmlns="http://www.w3.org/2000/svg" viewBox="0 0 24 24"><symbol id="a" viewBox="0 0 24 24"><path d="M8.7 21.8a1.5 1.5 0 1 0 0-3 1.5 1.5 0 0 0 0 3Zm9.7 0a1.5 1.5 0 1 0 0-3 1.5 1.5 0 0 0 0 3Zm4.4-15.7c-.2-.3-.5-.4-.8-.4H5.9l-.7-2.4c-.1-.4-.3-.7-.6-.9-.3-.3-.7-.4-1.1-.4H2c-.6 0-1 .4-1 1s.4 1 1 1h1.4l3.3 11.7c.1.5.5 1 .9 1.3.4.3 1 .5 1.5.5h9c.5 0 1.1-.2 1.5-.5.4-.3.8-.8.9-1.3L23 7c0-.3 0-.6-.2-.9Zm-4.3 9c0 .1-.1.2-.2.3 0 .1-.1.1-.2.1h-9c-.1 0-.2 0-.3-.1-.1-.1-.1-.2-.2-.3L6.5 7.7h14.2l-2.2 7.4Z"/></symbol><use href="#a"/></svg>