<svg width="32" height="32" viewBox="0 0 32 32" fill="none" xmlns="http://www.w3.org/2000/svg">
    <circle cx="16" cy="16" r="16" fill="#33DDDD"/>
    <path d="M17.6001 19.8371L18.8409 18.5964C19.0069 18.4302 19.2181 18.3165 19.4482 18.2692C19.6783 18.222 19.9172 18.2433 20.1353 18.3305L21.6464 18.9353C21.8691 19.0244 22.06 19.1782 22.1944 19.3769C22.3289 19.5755 22.4008 19.8099 22.4008 20.0498V22.7977C22.4011 22.961 22.3682 23.1227 22.3039 23.2728C22.2397 23.423 22.1454 23.5584 22.027 23.6709C21.9086 23.7833 21.7684 23.8705 21.6152 23.9269C21.4619 23.9833 21.2987 24.0079 21.1357 23.9991C10.5441 23.3399 8.40492 14.369 8.00778 10.9338C7.98854 10.7658 8.00508 10.5957 8.05631 10.4346C8.10753 10.2735 8.19228 10.1251 8.30498 9.9991C8.41768 9.87311 8.55578 9.77241 8.71019 9.70362C8.8646 9.63483 9.03183 9.59951 9.20087 9.59998H11.9C12.1399 9.59997 12.3743 9.67184 12.5729 9.80631C12.7715 9.94077 12.9253 10.1317 13.0144 10.3544L13.6187 11.8654C13.706 12.0835 13.7272 12.3224 13.68 12.5525C13.6327 12.7826 13.519 12.9938 13.3529 13.1599L12.1121 14.4006C12.1121 14.4006 12.8001 19.2372 17.6001 19.8371Z" fill="white"/>
    <path d="M21.2929 15.1389V14.0311H18.7527L22.4007 10.3832L21.6174 9.59998L17.9695 13.2479V10.7078H16.8617V15.1389H21.2929Z" fill="white"/>
</svg>
