<svg xmlns="http://www.w3.org/2000/svg" width="40" height="40" fill="none" viewBox="0 0 40 40"><path fill="#4E69A2" d="M20 0C8.954 0 0 8.954 0 20s8.954 20 20 20 20-8.954 20-20S31.046 0 20 0Z"/><path fill="#fff" fill-rule="evenodd" d="M16.463 11.018c-3.212.296-5.623 1.377-7.19 3.222-.948 1.118-1.337 2.214-1.264 3.561.07 1.32.623 2.47 1.688 3.515.391.385 1.276 1.066 1.7 1.31.153.088.152.107-.043.492-.23.455-.537.852-1.193 1.54-.876.92-.463 1.278 1.05.913a12.073 12.073 0 0 0 3.233-1.288l.642-.372.817.111c2.259.307 4.813-.088 6.844-1.058 2.639-1.26 4.09-3.187 4.09-5.433 0-2.967-2.803-5.513-6.94-6.304-.824-.158-2.73-.274-3.434-.209Zm11.955 4.87c.245.802.285 1.906.1 2.825-.298 1.495-1.008 2.72-2.268 3.917-2.132 2.024-5.263 3.149-8.795 3.158-1.154.003-1.152.037.041.574 1.336.601 2.283.834 4.046.994.931.085 1.31.082 2.252-.017l1.134-.12.631.362a11.676 11.676 0 0 0 3.242 1.285c1.483.352 1.874-.002 1.018-.92-.696-.745-1.347-1.665-1.347-1.901 0-.035.247-.22.549-.412 1.104-.698 2.174-1.875 2.573-2.827.675-1.612.504-3.31-.478-4.752-.454-.668-1.334-1.516-2.04-1.966-.59-.378-.725-.419-.658-.2Z" clip-rule="evenodd"/></svg>