<svg xmlns="http://www.w3.org/2000/svg" viewBox="0 0 24 24"><symbol id="a" viewBox="0 0 24 24"><path d="M21.4 7.2c-.5-1.2-1.2-2.3-2.2-3.3-.9-.9-2-1.7-3.3-2.2-1.2-.5-2.5-.7-3.8-.7-1.3 0-2.6.2-3.8.7C7 2.2 5.9 3 5 3.9c-.9.9-1.7 2-2.2 3.3C2.3 8.4 2 9.7 2 11v5.2c0 .7.3 1.3.7 1.8.5.5 1.1.7 1.8.7H6c.7 0 1.3-.3 1.8-.7.5-.5.7-1.1.7-1.8v-3.7c0-.7-.3-1.3-.7-1.8-.5-.4-1.1-.7-1.8-.7H4.1c.1-.7.3-1.4.6-2.1.4-1 1-1.9 1.7-2.6C7.1 4.6 8 4 9 3.6c1-.4 2-.6 3.1-.6s2.1.2 3.1.6c1 .4 1.9 1 2.6 1.7.8.7 1.3 1.6 1.8 2.6.3.7.5 1.4.6 2.1h-1.9c-.7 0-1.3.3-1.8.7-.5.5-.7 1.1-.7 1.8v3.7c0 .7.3 1.3.7 1.8.5.5 1.1.7 1.8.7h2c0 .5-.2.9-.6 1.2-.4.4-.9.6-1.4.6h-5.4c-.6 0-1 .4-1 1s.4 1 1 1h5.4c1.1 0 2.1-.4 2.8-1.2.8-.8 1.2-1.8 1.2-2.8V11c-.2-1.3-.4-2.6-.9-3.8ZM6 12c.1 0 .3.1.4.1.1.1.1.2.1.4v3.7c0 .1-.1.3-.1.4-.1.1-.2.1-.4.1H4.5c-.1 0-.3-.1-.4-.1 0-.1-.1-.2-.1-.4V12h2Zm13.6 4.8h-1.5c-.1 0-.3-.1-.4-.1-.1 0-.1-.2-.1-.4v-3.7c0-.1.1-.3.1-.4.1-.1.2-.1.4-.1h2v4.2c0 .1-.1.3-.1.4-.1 0-.2.1-.4.1Z"/></symbol><use href="#a"/></svg>