<svg xmlns="http://www.w3.org/2000/svg" viewBox="0 0 24 24"><symbol id="a" viewBox="0 0 24 24"><path d="M21.8 6.525s-.1 0 0 0c-.2-.3-.4-.5-.7-.7l-8.2-4.6c-.5-.3-1.2-.3-1.7 0l-8.3 4.7c-.3.1-.5.3-.7.6v.1c-.1.2-.2.5-.2.8v9.2c0 .3.1.6.2.9.2.3.4.5.7.6l8.2 4.6c.3.1.6.2.9.2.3 0 .6-.1.9-.2l8.3-4.6c.3-.2.5-.4.6-.6.2-.3.2-.6.2-.9v-9.2c0-.3-.1-.6-.2-.9Zm-9.8-3.5 7 3.9-2.4 1.3-7-3.9 2.4-1.3Zm.1 7.9-7.1-4 2.5-1.4 7.1 3.9-2.5 1.5ZM4 8.625l7.1 3.9-.1 7.9-7-3.9v-7.9Zm9 11.8.1-7.8 6.9-3.9v7.8l-7 3.9Z"/></symbol><use href="#a"/></svg>