<svg xmlns="http://www.w3.org/2000/svg" width="32" height="32" fill="none" viewBox="0 0 32 32"><circle cx="16" cy="16" r="16" fill="#7DA6FC"/><path fill="#fff" d="M16 6.4c-5.3 0-9.6 4.3-9.6 9.6s4.3 9.6 9.6 9.6h4.8v-1.92H16c-4.166 0-7.68-3.514-7.68-7.68S11.834 8.32 16 8.32s7.68 3.514 7.68 7.68v1.373c0 .758-.682 1.507-1.44 1.507-.758 0-1.44-.749-1.44-1.507V16a4.801 4.801 0 0 0-9.6 0 4.802 4.802 0 0 0 8.198 3.389c.624.854 1.7 1.411 2.842 1.411 1.891 0 3.36-1.536 3.36-3.427V16c0-5.3-4.3-9.6-9.6-9.6Zm0 12.48A2.876 2.876 0 0 1 13.12 16 2.876 2.876 0 0 1 16 13.12 2.876 2.876 0 0 1 18.88 16 2.876 2.876 0 0 1 16 18.88Z"/></svg>