<svg xmlns="http://www.w3.org/2000/svg" width="378" height="40" fill="none" viewBox="0 0 378 40"><path fill="#fff" d="M34.486 21.822c0 4.99-3.725 9.236-9.013 10.949-1.713.521-3.5.894-5.437.894-1.936 0-3.798-.298-5.437-.894-5.288-1.713-9.012-5.959-9.012-10.949 0-6.554 6.48-11.842 14.45-11.842 7.969 0 14.449 5.288 14.449 11.842Z"/><path fill="#fff" d="M7.45 7.97c.148 3.5.297 7.596.297 8.118l7.15.596 1.788-5.289L9.907 6.63c-1.042-.82-2.532 0-2.458 1.34Zm25.174 0c-.15 3.5-.299 7.596-.299 8.118l-7.15.596-1.787-5.289 6.778-4.766c1.042-.82 2.532 0 2.457 1.34Z"/><path fill="#4AAC33" fill-rule="evenodd" d="M22.568 20.333c-1.192-1.49-3.426-1.564-4.692-.224l-.224.224-1.117-1.117.224-.224c1.936-2.085 5.288-1.936 7.075.298l-1.266 1.043Z" clip-rule="evenodd"/><path fill="#fff" d="M18.324 18.992a4.482 4.482 0 0 1-4.47 4.47 4.482 4.482 0 0 1-4.468-4.47 4.482 4.482 0 0 1 4.469-4.469c2.458 0 4.469 1.937 4.469 4.47Z"/><path fill="#4AAC33" fill-rule="evenodd" d="M13.78 21.897a2.908 2.908 0 0 0 2.904-2.905c0-1.564-1.34-2.905-2.905-2.905-1.564 0-2.904 1.341-2.904 2.905 0 1.564 1.34 2.905 2.905 2.905Zm0 1.564a4.482 4.482 0 0 0 4.468-4.469 4.482 4.482 0 0 0-4.469-4.469 4.482 4.482 0 0 0-4.468 4.47 4.482 4.482 0 0 0 4.469 4.468Z" clip-rule="evenodd"/><path fill="#fff" d="M30.76 18.992a4.482 4.482 0 0 1-4.468 4.47 4.482 4.482 0 0 1-4.469-4.47 4.482 4.482 0 0 1 4.47-4.469c2.457 0 4.468 1.937 4.468 4.47Z"/><path fill="#4AAC33" fill-rule="evenodd" d="M26.292 21.897a2.908 2.908 0 0 0 2.905-2.905c0-1.564-1.34-2.905-2.905-2.905-1.564 0-2.905 1.341-2.905 2.905a2.908 2.908 0 0 0 2.905 2.905Zm0 1.564a4.482 4.482 0 0 0 4.469-4.469 4.482 4.482 0 0 0-4.469-4.469 4.482 4.482 0 0 0-4.469 4.47c0 2.457 1.937 4.468 4.47 4.468Z" clip-rule="evenodd"/><path fill="#4AAC33" d="M30.388 0H9.683A9.663 9.663 0 0 0 0 9.683v20.63a9.663 9.663 0 0 0 9.683 9.683h20.63a9.663 9.663 0 0 0 9.683-9.682V9.683C40.146 4.32 35.826 0 30.388 0Z"/><path fill="#fff" d="M16.833 18.843c-.074-1.564-1.34-2.83-2.905-2.83a2.908 2.908 0 0 0-2.905 2.905 2.908 2.908 0 0 0 2.905 2.905c1.415 0 2.607-.969 2.83-2.31.075-.223.075-.372.075-.595v-.075Zm9.534-2.83a2.908 2.908 0 0 0-2.905 2.905v.298c0 .074 0 .223.074.298.298 1.34 1.415 2.383 2.905 2.383a2.908 2.908 0 0 0 2.905-2.905 2.988 2.988 0 0 0-2.98-2.979Z"/><path fill="#fff" d="M32.325 15.566c0-1.266.149-4.692.298-7.597.074-1.34-1.415-2.085-2.458-1.34l-5.586 3.947a17.494 17.494 0 0 0-4.47-.596 17.51 17.51 0 0 0-4.468.596L10.055 6.63c-1.043-.745-2.532.074-2.458 1.34.15 2.98.298 6.331.298 7.597-1.34 1.788-2.16 3.948-2.16 6.257 0 4.99 3.724 9.235 9.012 10.949 1.713.52 3.5.893 5.437.893 1.937 0 3.799-.298 5.438-.893 5.288-1.788 9.012-6.033 9.012-10.95-.15-2.308-.894-4.394-2.31-6.256Zm-5.959 7.895a4.56 4.56 0 0 1-4.468-3.724c-1.043-.744-2.458-.819-3.576-.074-.297 2.16-2.16 3.798-4.468 3.798a4.482 4.482 0 0 1-4.47-4.468 4.482 4.482 0 0 1 4.47-4.47c2.16 0 3.873 1.49 4.394 3.427 1.192-.521 2.532-.447 3.724 0a4.48 4.48 0 0 1 4.394-3.5 4.482 4.482 0 0 1 4.47 4.468c.074 2.532-1.937 4.543-4.47 4.543Z"/><path fill="#3B5998" d="M54.11 29.988H50V9.978h4.26v12.93l9.27-12.93h4.38v20.01h-4.26v-13.41l-9.54 13.41Zm35.746 0h-4.29v-8.4h-9.45v8.4h-4.26V9.978h4.26v7.86h9.45v-7.86h4.29v20.01Zm16.903 0h-4.26v-2.01c-6.06-.51-9.66-3.36-9.66-7.98 0-4.59 3.6-7.44 9.66-7.98v-2.04h4.26v2.04c6.06.54 9.66 3.36 9.66 7.98 0 4.62-3.6 7.47-9.66 7.98v2.01Zm5.31-9.99c0-2.28-1.86-3.75-5.31-4.17v8.34c3.45-.39 5.31-1.89 5.31-4.17Zm-14.85 0c0 2.28 1.83 3.75 5.28 4.17v-8.34c-3.45.42-5.28 1.92-5.28 4.17Zm31.724 10.35c-6.03 0-10.44-4.32-10.44-10.35 0-6.03 4.41-10.35 10.44-10.35 6.06 0 10.47 4.32 10.47 10.35 0 6.03-4.41 10.35-10.47 10.35Zm0-3.78c3.69 0 6.09-2.85 6.09-6.57 0-3.75-2.4-6.57-6.09-6.57s-6.06 2.82-6.06 6.57c0 3.72 2.37 6.57 6.06 6.57Z"/><path fill="#4AAC33" d="M152.063 30.4c-6 0-10.65-4.2-10.65-10.35 0-6.15 4.65-10.35 10.65-10.35 4.41 0 6.96 2.4 8.37 4.89l-3.66 1.8c-.84-1.62-2.64-2.91-4.71-2.91-3.63 0-6.27 2.79-6.27 6.57 0 3.78 2.64 6.57 6.27 6.57 2.07 0 3.87-1.26 4.71-2.91l3.66 1.77c-1.44 2.49-3.96 4.92-8.37 4.92Zm19.816-.36h-4.29V13.78h-5.85v-3.75h15.96v3.75h-5.82v16.26Zm25.277 0h-4.86l-1.23-3.39h-8.58l-1.26 3.39h-4.86l7.74-20.01h5.34l7.71 20.01Zm-7.26-7.14-3.12-8.61-3.12 8.61h6.24Zm13.368 7.14h-4.26V10.03h9.36c4.35 0 6.72 2.94 6.72 6.45 0 3.48-2.4 6.45-6.72 6.45h-5.1v7.11Zm4.53-10.86c1.68 0 2.94-1.05 2.94-2.7 0-1.68-1.26-2.7-2.94-2.7h-4.53v5.4h4.53Zm18.841 10.86h-4.29V13.78h-5.85v-3.75h15.96v3.75h-5.82v16.26Zm25.706.36c-1.48 0-2.83-.26-4.05-.78a9.41 9.41 0 0 1-3.15-2.16c-.86-.94-1.53-2.04-2.01-3.3-.48-1.26-.72-2.63-.72-4.11 0-1.48.24-2.85.72-4.11.48-1.26 1.15-2.35 2.01-3.27.88-.94 1.93-1.67 3.15-2.19s2.57-.78 4.05-.78 2.83.26 4.05.78a8.9 8.9 0 0 1 3.12 2.19c.88.92 1.56 2.01 2.04 3.27.48 1.26.72 2.63.72 4.11 0 1.48-.24 2.85-.72 4.11a9.96 9.96 0 0 1-2.04 3.3 9.09 9.09 0 0 1-3.12 2.16c-1.22.52-2.57.78-4.05.78Zm0-2.22c1.12 0 2.13-.2 3.03-.6.9-.42 1.67-.99 2.31-1.71.64-.74 1.13-1.6 1.47-2.58.36-1 .54-2.08.54-3.24 0-1.16-.18-2.24-.54-3.24-.34-1-.83-1.86-1.47-2.58a6.682 6.682 0 0 0-2.31-1.68c-.9-.42-1.91-.63-3.03-.63-1.12 0-2.14.21-3.06.63-.9.4-1.67.96-2.31 1.68-.64.72-1.13 1.58-1.47 2.58-.34 1-.51 2.08-.51 3.24 0 1.16.17 2.24.51 3.24.34.98.83 1.84 1.47 2.58a7.03 7.03 0 0 0 2.31 1.71c.92.4 1.94.6 3.06.6Zm20.06.21c.78 0 1.46-.15 2.04-.45.6-.32 1.1-.73 1.5-1.23.42-.52.73-1.12.93-1.8.22-.68.33-1.4.33-2.16 0-.72-.11-1.41-.33-2.07-.2-.68-.51-1.27-.93-1.77-.4-.52-.9-.93-1.5-1.23-.58-.32-1.26-.48-2.04-.48s-1.47.16-2.07.48c-.6.3-1.11.71-1.53 1.23-.4.5-.71 1.09-.93 1.77-.2.66-.3 1.35-.3 2.07 0 .76.1 1.48.3 2.16.22.68.53 1.28.93 1.8.42.5.93.91 1.53 1.23.6.3 1.29.45 2.07.45Zm0 2.01c-1.12 0-2.12-.2-3-.6-.88-.42-1.63-1-2.25-1.74-.62-.74-1.1-1.61-1.44-2.61-.32-1.02-.48-2.13-.48-3.33 0-1.76.16-3.27.48-4.53.32-1.28.79-2.34 1.41-3.18.64-.84 1.43-1.49 2.37-1.95.96-.48 2.07-.8 3.33-.96.8-.12 1.46-.23 1.98-.33.52-.12.93-.24 1.23-.36.32-.12.54-.24.66-.36a.54.54 0 0 0 .21-.42h2.19c0 .6-.18 1.1-.54 1.5-.36.38-.82.69-1.38.93-.56.24-1.18.43-1.86.57-.66.14-1.3.25-1.92.33-1.08.16-1.98.39-2.7.69-.72.3-1.31.66-1.77 1.08-.46.42-.82.9-1.08 1.44-.24.52-.42 1.09-.54 1.71.26-.42.57-.81.93-1.17.36-.38.77-.71 1.23-.99.46-.28.96-.5 1.5-.66.56-.18 1.16-.27 1.8-.27 1.02 0 1.95.2 2.79.6.84.4 1.55.95 2.13 1.65.6.68 1.06 1.48 1.38 2.4.32.92.48 1.89.48 2.91 0 1.04-.16 2.03-.48 2.97-.32.92-.79 1.73-1.41 2.43-.62.68-1.37 1.23-2.25 1.65-.88.4-1.88.6-3 .6Zm10.534 3.27c.16.08.36.14.6.18.24.04.45.06.63.06.5 0 .92-.11 1.26-.33.34-.2.64-.6.9-1.2l.96-2.19-6.06-14.64h2.43l4.83 11.88 4.8-11.88h2.46l-7.26 17.43c-.44 1.06-1.02 1.81-1.74 2.25-.72.44-1.56.67-2.52.69-.24 0-.52-.02-.84-.06-.32-.04-.59-.09-.81-.15l.36-2.04Zm17.107-18.12v4.08c0 .68.08 1.24.24 1.68.16.44.39.79.69 1.05.32.26.71.45 1.17.57.46.1.99.15 1.59.15.76 0 1.48-.07 2.16-.21.68-.16 1.24-.35 1.68-.57v-6.75h2.25v14.49h-2.25v-5.91c-.54.28-1.2.51-1.98.69-.78.18-1.59.27-2.43.27-1.9 0-3.27-.38-4.11-1.14-.84-.76-1.26-1.97-1.26-3.63v-4.77h2.25Zm20.821 14.85c-1.08 0-2.07-.18-2.97-.54-.9-.38-1.68-.9-2.34-1.56a7.817 7.817 0 0 1-1.53-2.4c-.36-.94-.54-1.98-.54-3.12 0-1.04.18-2.02.54-2.94.36-.94.85-1.75 1.47-2.43.64-.68 1.39-1.22 2.25-1.62.88-.4 1.84-.6 2.88-.6 1.1 0 2.08.2 2.94.6.86.4 1.59.95 2.19 1.65.6.7 1.05 1.53 1.35 2.49.32.94.48 1.95.48 3.03v.57h-11.73c.04.68.19 1.33.45 1.95.26.6.61 1.13 1.05 1.59.46.44 1 .8 1.62 1.08.62.26 1.32.39 2.1.39.84 0 1.65-.16 2.43-.48.78-.32 1.46-.77 2.04-1.35l1.08 1.47a7.35 7.35 0 0 1-2.52 1.65c-.96.38-2.04.57-3.24.57Zm4.5-8.52c0-.54-.1-1.09-.3-1.65-.18-.58-.47-1.1-.87-1.56-.38-.48-.87-.87-1.47-1.17-.6-.3-1.31-.45-2.13-.45-.78 0-1.46.15-2.04.45-.58.3-1.07.68-1.47 1.14-.38.46-.68.98-.9 1.56-.2.56-.31 1.12-.33 1.68h9.51Zm5.864 8.16V15.55h2.25v6.03h7.56v-6.03h2.25v14.49h-2.25v-6.48h-7.56v6.48h-2.25Zm16.553 0V15.55h2.25v11.07l7.59-11.07h2.22v14.49h-2.25V18.76l-7.65 11.28h-2.16Zm23.093.36c-1.08 0-2.07-.18-2.97-.54-.9-.38-1.68-.9-2.34-1.56a7.817 7.817 0 0 1-1.53-2.4c-.36-.94-.54-1.98-.54-3.12 0-1.04.18-2.02.54-2.94.36-.94.85-1.75 1.47-2.43.64-.68 1.39-1.22 2.25-1.62.88-.4 1.84-.6 2.88-.6 1.1 0 2.08.2 2.94.6.86.4 1.59.95 2.19 1.65.6.7 1.05 1.53 1.35 2.49.32.94.48 1.95.48 3.03v.57h-11.73c.04.68.19 1.33.45 1.95.26.6.61 1.13 1.05 1.59.46.44 1 .8 1.62 1.08.62.26 1.32.39 2.1.39.84 0 1.65-.16 2.43-.48.78-.32 1.46-.77 2.04-1.35l1.08 1.47a7.35 7.35 0 0 1-2.52 1.65c-.96.38-2.04.57-3.24.57Zm4.5-8.52c0-.54-.1-1.09-.3-1.65-.18-.58-.47-1.1-.87-1.56-.38-.48-.87-.87-1.47-1.17-.6-.3-1.31-.45-2.13-.45-.78 0-1.46.15-2.04.45-.58.3-1.07.68-1.47 1.14-.38.46-.68.98-.9 1.56-.2.56-.31 1.12-.33 1.68h9.51Z"/></svg>