<svg xmlns="http://www.w3.org/2000/svg" width="343" height="33" fill="none" viewBox="0 0 343 33"><path fill="#fff" d="M28.453 18.004c0 4.118-3.072 7.62-7.436 9.034-1.413.43-2.888.737-4.486.737-1.597 0-3.134-.245-4.486-.737-4.363-1.413-7.435-4.916-7.435-9.034 0-5.408 5.346-9.77 11.921-9.77 6.576 0 11.922 4.363 11.922 9.77Z"/><path fill="#fff" d="M6.147 6.575c.122 2.888.245 6.268.245 6.698l5.9.492L13.767 9.4 8.174 5.468c-.86-.676-2.089 0-2.027 1.107Zm20.77 0c-.123 2.888-.246 6.268-.246 6.698l-5.9.492L19.298 9.4l5.592-3.933c.86-.676 2.09 0 2.028 1.107Z"/><path fill="#4AAC33" fill-rule="evenodd" d="M18.62 16.776c-.983-1.23-2.827-1.29-3.871-.185l-.185.185-.921-.922.184-.185c1.598-1.72 4.363-1.597 5.838.246l-1.045.86Z" clip-rule="evenodd"/><path fill="#fff" d="M15.118 15.67a3.698 3.698 0 0 1-3.687 3.688 3.698 3.698 0 0 1-3.687-3.687 3.698 3.698 0 0 1 3.687-3.688 3.659 3.659 0 0 1 3.687 3.688Z"/><path fill="#4AAC33" fill-rule="evenodd" d="M11.369 18.067a2.4 2.4 0 0 0 2.397-2.396c0-1.291-1.107-2.397-2.397-2.397-1.29 0-2.397 1.106-2.397 2.397 0 1.29 1.107 2.396 2.397 2.396Zm0 1.29a3.698 3.698 0 0 0 3.687-3.686 3.698 3.698 0 0 0-3.687-3.688 3.698 3.698 0 0 0-3.687 3.688 3.698 3.698 0 0 0 3.687 3.687Z" clip-rule="evenodd"/><path fill="#fff" d="M25.38 15.67a3.698 3.698 0 0 1-3.687 3.688 3.698 3.698 0 0 1-3.687-3.687 3.698 3.698 0 0 1 3.687-3.688 3.659 3.659 0 0 1 3.687 3.688Z"/><path fill="#4AAC33" fill-rule="evenodd" d="M21.693 18.067a2.4 2.4 0 0 0 2.397-2.396c0-1.291-1.107-2.397-2.397-2.397-1.29 0-2.397 1.106-2.397 2.397a2.4 2.4 0 0 0 2.397 2.396Zm0 1.29a3.698 3.698 0 0 0 3.687-3.686 3.698 3.698 0 0 0-3.687-3.688 3.698 3.698 0 0 0-3.687 3.688 3.659 3.659 0 0 0 3.687 3.687Z" clip-rule="evenodd"/><path fill="#4AAC33" d="M25.073 0H7.989A7.973 7.973 0 0 0 0 7.989V25.01A7.973 7.973 0 0 0 7.989 33H25.01A7.973 7.973 0 0 0 33 25.011V7.99C33.123 3.564 29.559 0 25.073 0Z"/><path fill="#fff" d="M13.889 15.548c-.062-1.29-1.107-2.335-2.397-2.335a2.4 2.4 0 0 0-2.397 2.397 2.4 2.4 0 0 0 2.397 2.396c1.167 0 2.15-.799 2.335-1.905.062-.184.062-.307.062-.491v-.062Zm7.865-2.335a2.4 2.4 0 0 0-2.396 2.397v.245c0 .062 0 .185.061.246.246 1.106 1.168 1.967 2.397 1.967a2.4 2.4 0 0 0 2.396-2.397 2.465 2.465 0 0 0-2.458-2.458Z"/><path fill="#fff" d="M26.67 12.844c0-1.044.123-3.871.246-6.268.062-1.106-1.167-1.72-2.028-1.106L20.28 8.727a14.433 14.433 0 0 0-3.687-.492c-1.29 0-2.52.185-3.687.492L8.296 5.47c-.86-.614-2.09.062-2.028 1.106.123 2.458.246 5.224.246 6.268-1.106 1.475-1.782 3.257-1.782 5.162 0 4.118 3.073 7.62 7.436 9.034 1.413.43 2.888.737 4.486.737 1.598 0 3.134-.245 4.486-.737 4.363-1.475 7.436-4.978 7.436-9.034-.123-1.905-.738-3.625-1.905-5.162Zm-4.916 6.514a3.763 3.763 0 0 1-3.687-3.072 2.59 2.59 0 0 0-2.95-.062c-.245 1.782-1.782 3.134-3.687 3.134a3.698 3.698 0 0 1-3.687-3.687 3.698 3.698 0 0 1 3.687-3.687c1.782 0 3.196 1.23 3.626 2.827.983-.43 2.09-.369 3.073 0a3.696 3.696 0 0 1 3.625-2.888 3.698 3.698 0 0 1 3.687 3.687c.062 2.09-1.597 3.748-3.687 3.748ZM45.77 25.67H42V7.303h3.907V19.17l8.501-11.868h4.017V25.67h-3.907V13.36L45.77 25.67Zm32.781 0h-3.934v-7.71H65.95v7.71h-3.907V7.303h3.907v7.214h8.667V7.303h3.934V25.67Zm15.502 0h-3.907v-1.845c-5.557-.468-8.859-3.084-8.859-7.325 0-4.213 3.302-6.829 8.86-7.325V7.303h3.906v1.872c5.558.496 8.859 3.084 8.859 7.325 0 4.24-3.301 6.857-8.859 7.325v1.845Zm4.87-9.17c0-2.093-1.706-3.442-4.87-3.828v7.656c3.164-.358 4.87-1.735 4.87-3.828Zm-13.619 0c0 2.093 1.678 3.442 4.842 3.828v-7.655c-3.164.385-4.842 1.762-4.842 3.827Zm29.094 9.5c-5.53 0-9.574-3.965-9.574-9.5s4.044-9.5 9.574-9.5c5.558 0 9.602 3.965 9.602 9.5s-4.044 9.5-9.602 9.5Zm0-3.47c3.384 0 5.585-2.616 5.585-6.03 0-3.442-2.201-6.03-5.585-6.03s-5.558 2.588-5.558 6.03c0 3.415 2.174 6.03 5.558 6.03Z"/><path fill="#4AAC33" d="M135.785 25.947c-5.513 0-9.785-3.844-9.785-9.473 0-5.63 4.272-9.474 9.785-9.474 4.052 0 6.395 2.197 7.69 4.476l-3.362 1.648c-.772-1.483-2.426-2.664-4.328-2.664-3.335 0-5.761 2.554-5.761 6.014 0 3.46 2.426 6.013 5.761 6.013 1.902 0 3.556-1.153 4.328-2.663l3.362 1.62c-1.323 2.28-3.638 4.503-7.69 4.503Zm18.207-.329h-3.942V10.735h-5.375V7.302h14.664v3.433h-5.347v14.883Zm23.224 0h-4.465l-1.13-3.103h-7.883l-1.158 3.103h-4.465l7.111-18.316h4.906l7.084 18.316Zm-6.67-6.536-2.867-7.88-2.866 7.88h5.733Zm12.282 6.536h-3.914V7.302h8.6c3.997 0 6.174 2.691 6.174 5.904 0 3.185-2.205 5.904-6.174 5.904h-4.686v6.508Zm4.162-9.94c1.544 0 2.702-.962 2.702-2.472 0-1.538-1.158-2.471-2.702-2.471h-4.162v4.942h4.162Zm17.311 9.94h-3.942V10.735h-5.375V7.302h14.664v3.433h-5.347v14.883Zm23.619.329c-1.36 0-2.6-.238-3.721-.714a8.64 8.64 0 0 1-2.894-1.977 9.357 9.357 0 0 1-1.847-3.02c-.441-1.154-.661-2.408-.661-3.762 0-1.355.22-2.609.661-3.762a9.03 9.03 0 0 1 1.847-2.993 8.45 8.45 0 0 1 2.894-2.005C225.32 7.238 226.56 7 227.92 7c1.36 0 2.6.238 3.721.714a8.176 8.176 0 0 1 2.867 2.005 8.817 8.817 0 0 1 1.874 2.993c.441 1.153.662 2.407.662 3.762 0 1.354-.221 2.608-.662 3.762a9.12 9.12 0 0 1-1.874 3.02 8.353 8.353 0 0 1-2.867 1.977c-1.121.476-2.361.714-3.721.714Zm0-2.032c1.029 0 1.957-.183 2.784-.549a6.453 6.453 0 0 0 2.122-1.565 7.123 7.123 0 0 0 1.351-2.362 8.657 8.657 0 0 0 .496-2.965 8.66 8.66 0 0 0-.496-2.966c-.312-.915-.762-1.702-1.351-2.361a6.135 6.135 0 0 0-2.122-1.538c-.827-.385-1.755-.577-2.784-.577s-1.966.192-2.811.577a6.139 6.139 0 0 0-2.123 1.537c-.588.66-1.038 1.447-1.35 2.362a9.108 9.108 0 0 0-.469 2.966c0 1.061.156 2.05.469 2.965a7.138 7.138 0 0 0 1.35 2.362 6.457 6.457 0 0 0 2.123 1.565c.845.366 1.782.55 2.811.55Zm18.431.193c.716 0 1.341-.138 1.874-.412a4.371 4.371 0 0 0 1.378-1.126 4.7 4.7 0 0 0 .855-1.648 6.366 6.366 0 0 0 .303-1.977 5.94 5.94 0 0 0-.303-1.895 4.424 4.424 0 0 0-.855-1.62 3.926 3.926 0 0 0-1.378-1.126c-.533-.293-1.158-.439-1.874-.439-.717 0-1.351.146-1.902.44-.552.274-1.02.65-1.406 1.125a5.059 5.059 0 0 0-.855 1.62 6.5 6.5 0 0 0-.275 1.895c0 .696.092 1.355.275 1.977.203.623.487 1.172.855 1.648a4.71 4.71 0 0 0 1.406 1.126c.551.274 1.185.412 1.902.412Zm0 1.84c-1.029 0-1.948-.184-2.757-.55a6.088 6.088 0 0 1-2.067-1.593 7.351 7.351 0 0 1-1.323-2.389c-.294-.933-.441-1.95-.441-3.048 0-1.61.147-2.993.441-4.146.294-1.172.726-2.142 1.295-2.91a6.036 6.036 0 0 1 2.178-1.786c.882-.439 1.902-.732 3.059-.878a45.85 45.85 0 0 0 1.82-.302c.477-.11.854-.22 1.13-.33.294-.11.496-.22.606-.33a.492.492 0 0 0 .193-.384h2.012c0 .55-.165 1.007-.496 1.373a3.754 3.754 0 0 1-1.268.851 8.888 8.888 0 0 1-1.709.522 22.18 22.18 0 0 1-1.764.302c-.992.147-1.819.357-2.481.632-.661.274-1.203.604-1.626.988a4.313 4.313 0 0 0-.992 1.318 6.755 6.755 0 0 0-.496 1.566 5.91 5.91 0 0 1 .854-1.071c.331-.348.708-.65 1.13-.907a5.823 5.823 0 0 1 1.379-.604 5.387 5.387 0 0 1 1.653-.247c.938 0 1.792.183 2.564.55a5.667 5.667 0 0 1 1.957 1.51 6.512 6.512 0 0 1 1.268 2.197c.294.842.441 1.73.441 2.663a8.35 8.35 0 0 1-.441 2.719 6.564 6.564 0 0 1-1.296 2.224 6.608 6.608 0 0 1-2.067 1.51c-.809.366-1.727.55-2.756.55Zm9.679 2.992c.147.074.33.129.551.165.22.037.413.055.579.055.459 0 .845-.1 1.157-.302.313-.183.588-.55.827-1.098l.882-2.005-5.568-13.4h2.233l4.438 10.874 4.41-10.874h2.26l-6.67 15.954c-.404.97-.937 1.657-1.599 2.06-.661.402-1.433.613-2.315.631-.221 0-.478-.018-.772-.055a5.465 5.465 0 0 1-.744-.137l.331-1.867Zm15.717-16.585v3.734c0 .623.074 1.135.221 1.538.147.403.358.723.634.961a2.8 2.8 0 0 0 1.075.522c.423.091.909.137 1.461.137a9.85 9.85 0 0 0 1.984-.192c.625-.146 1.14-.32 1.544-.522v-6.178h2.067v13.263h-2.067v-5.41c-.496.257-1.103.467-1.819.632a9.936 9.936 0 0 1-2.233.247c-1.746 0-3.004-.348-3.776-1.043-.772-.696-1.158-1.804-1.158-3.323v-4.366h2.067Zm19.13 13.592c-.992 0-1.902-.164-2.729-.494a6.686 6.686 0 0 1-2.15-1.428 7.149 7.149 0 0 1-1.405-2.197c-.331-.86-.497-1.812-.497-2.855 0-.952.166-1.85.497-2.691.33-.86.781-1.602 1.35-2.225a6.678 6.678 0 0 1 2.067-1.483 6.342 6.342 0 0 1 2.647-.549c1.01 0 1.911.183 2.701.55.79.366 1.461.869 2.012 1.51.551.64.965 1.4 1.24 2.279a8.52 8.52 0 0 1 .441 2.773v.522h-10.777c.037.623.175 1.217.413 1.785.239.55.561 1.034.965 1.455.423.403.919.733 1.489.989.569.238 1.212.357 1.929.357a5.85 5.85 0 0 0 2.233-.44 5.665 5.665 0 0 0 1.874-1.235l.992 1.345a6.747 6.747 0 0 1-2.315 1.51c-.882.348-1.874.522-2.977.522Zm4.135-7.798c0-.495-.092-.998-.276-1.51a3.926 3.926 0 0 0-.799-1.428c-.349-.44-.8-.797-1.351-1.071-.551-.275-1.204-.412-1.957-.412-.717 0-1.341.137-1.874.412a4.52 4.52 0 0 0-1.351 1.043 5.013 5.013 0 0 0-.827 1.428 5.057 5.057 0 0 0-.303 1.538h8.738Zm5.388 7.469V12.355h2.067v5.52h6.946v-5.52h2.067v13.263h-2.067v-5.931h-6.946v5.93H300.4Zm15.208 0V12.355h2.068v10.132l6.973-10.132h2.04v13.263h-2.067V15.293l-7.029 10.325h-1.985Zm21.218.329c-.993 0-1.902-.164-2.729-.494a6.675 6.675 0 0 1-2.15-1.428 7.151 7.151 0 0 1-1.406-2.197c-.331-.86-.496-1.812-.496-2.855 0-.952.165-1.85.496-2.691a6.944 6.944 0 0 1 1.351-2.225 6.678 6.678 0 0 1 2.067-1.483 6.34 6.34 0 0 1 2.646-.549c1.011 0 1.911.183 2.701.55a5.88 5.88 0 0 1 2.013 1.51c.551.64.964 1.4 1.24 2.279a8.52 8.52 0 0 1 .441 2.773v.522h-10.777c.036.623.174 1.217.413 1.785.239.55.56 1.034.965 1.455.422.403.919.733 1.488.989.57.238 1.213.357 1.93.357.771 0 1.516-.147 2.232-.44a5.66 5.66 0 0 0 1.875-1.235l.992 1.345a6.757 6.757 0 0 1-2.315 1.51c-.882.348-1.875.522-2.977.522Zm4.134-7.798c0-.495-.092-.998-.275-1.51a3.928 3.928 0 0 0-.8-1.428 3.934 3.934 0 0 0-1.35-1.071c-.552-.275-1.204-.412-1.957-.412-.717 0-1.342.137-1.875.412a4.503 4.503 0 0 0-1.35 1.043 5.013 5.013 0 0 0-.827 1.428 5.057 5.057 0 0 0-.303 1.538h8.737Z"/></svg>