<svg width="343" height="33" viewBox="0 0 343 33" fill="none" xmlns="http://www.w3.org/2000/svg">
<path d="M28.4532 18.0043C28.4532 22.1217 25.3806 25.6245 21.0174 27.0379C19.604 27.468 18.1292 27.7753 16.5314 27.7753C14.9336 27.7753 13.3973 27.5295 12.0454 27.0379C7.68224 25.6245 4.60962 22.1217 4.60962 18.0043C4.60962 12.5965 9.95599 8.2334 16.5314 8.2334C23.1068 8.2334 28.4532 12.5965 28.4532 18.0043Z" fill="white"/>
<path d="M6.1465 6.57452C6.26941 9.46279 6.39231 12.8427 6.39231 13.2728L12.2918 13.7645L13.7666 9.40133L8.17444 5.46837C7.3141 4.79239 6.08505 5.46837 6.1465 6.57452Z" fill="white"/>
<path d="M26.9167 6.57452C26.7938 9.46279 26.6709 12.8427 26.6709 13.2728L20.7715 13.7645L19.2966 9.40133L24.8888 5.46837C25.7491 4.79239 26.9782 5.46837 26.9167 6.57452Z" fill="white"/>
<path fill-rule="evenodd" clip-rule="evenodd" d="M18.6202 16.7756C17.637 15.5465 15.7934 15.4851 14.7487 16.5912L14.5644 16.7756L13.6426 15.8538L13.8269 15.6694C15.4247 13.9487 18.1901 14.0716 19.6649 15.9152L18.6202 16.7756Z" fill="#4AAC33"/>
<path d="M15.1184 15.6705C15.1184 17.6985 13.4592 19.3577 11.4313 19.3577C9.40336 19.3577 7.74414 17.6985 7.74414 15.6705C7.74414 13.6426 9.40336 11.9834 11.4313 11.9834C13.4592 11.9834 15.1184 13.5812 15.1184 15.6705Z" fill="white"/>
<path fill-rule="evenodd" clip-rule="evenodd" d="M11.369 18.0672C12.721 18.0672 13.7657 16.9611 13.7657 15.6705C13.7657 14.38 12.6595 13.2739 11.369 13.2739C10.0785 13.2739 8.97239 14.38 8.97239 15.6705C8.97239 16.9611 10.0785 18.0672 11.369 18.0672ZM11.369 19.3577C13.397 19.3577 15.0562 17.6985 15.0562 15.6705C15.0562 13.6426 13.397 11.9834 11.369 11.9834C9.3411 11.9834 7.68188 13.6426 7.68188 15.6705C7.68188 17.6985 9.3411 19.3577 11.369 19.3577Z" fill="#4AAC33"/>
<path d="M25.3802 15.6705C25.3802 17.6985 23.7209 19.3577 21.693 19.3577C19.6651 19.3577 18.0059 17.6985 18.0059 15.6705C18.0059 13.6426 19.6651 11.9834 21.693 11.9834C23.7209 11.9834 25.3802 13.5812 25.3802 15.6705Z" fill="white"/>
<path fill-rule="evenodd" clip-rule="evenodd" d="M21.693 18.0672C23.045 18.0672 24.0897 16.9611 24.0897 15.6705C24.0897 14.38 22.9835 13.2739 21.693 13.2739C20.4025 13.2739 19.2964 14.38 19.2964 15.6705C19.2964 16.9611 20.3411 18.0672 21.693 18.0672ZM21.693 19.3577C23.7209 19.3577 25.3802 17.6985 25.3802 15.6705C25.3802 13.6426 23.7209 11.9834 21.693 11.9834C19.6651 11.9834 18.0059 13.6426 18.0059 15.6705C18.0059 17.6985 19.6036 19.3577 21.693 19.3577Z" fill="#4AAC33"/>
<path d="M25.0726 0H7.98883C3.56425 0 0 3.56425 0 7.98883V25.0112C0 29.4358 3.56425 33 7.98883 33H25.0112C29.4358 33 33 29.4358 33 25.0112V7.98883C33.1229 3.56425 29.5587 0 25.0726 0Z" fill="#4AAC33"/>
<path d="M13.8885 15.5481C13.8271 14.2576 12.7824 13.2129 11.4919 13.2129C10.1399 13.2129 9.09521 14.319 9.09521 15.6095C9.09521 16.9615 10.2014 18.0062 11.4919 18.0062C12.6595 18.0062 13.6427 17.2073 13.8271 16.1012C13.8885 15.9168 13.8885 15.7939 13.8885 15.6095C13.8885 15.6095 13.8885 15.6095 13.8885 15.5481Z" fill="white"/>
<path d="M21.7543 13.2129C20.4024 13.2129 19.3577 14.319 19.3577 15.6095C19.3577 15.671 19.3577 15.7939 19.3577 15.8553C19.3577 15.9168 19.3577 16.0397 19.4191 16.1012C19.6649 17.2073 20.5867 18.0676 21.8158 18.0676C23.1677 18.0676 24.2124 16.9615 24.2124 15.671C24.2124 14.319 23.1063 13.2129 21.7543 13.2129Z" fill="white"/>
<path d="M26.6705 12.8444C26.6705 11.7997 26.7934 8.97286 26.9163 6.57621C26.9777 5.47006 25.7487 4.85554 24.8884 5.47006L20.2794 8.72705C19.1118 8.41979 17.8828 8.23543 16.5923 8.23543C15.3018 8.23543 14.0727 8.41979 12.9051 8.72705L8.29618 5.47006C7.43584 4.85554 6.20679 5.53152 6.26825 6.57621C6.39115 9.03431 6.51406 11.7997 6.51406 12.8444C5.40791 14.3192 4.73193 16.1013 4.73193 18.0064C4.73193 22.1237 7.80456 25.6265 12.1677 27.0399C13.5811 27.4701 15.056 27.7773 16.6537 27.7773C18.2515 27.7773 19.7878 27.5315 21.1398 27.0399C25.5029 25.565 28.5755 22.0622 28.5755 18.0064C28.4526 16.1013 27.8381 14.3807 26.6705 12.8444ZM21.7543 19.3583C19.9107 19.3583 18.3744 18.0064 18.0671 16.2857C17.2068 15.6712 16.0392 15.6097 15.1174 16.2243C14.8716 18.0064 13.3353 19.3583 11.4303 19.3583C9.40232 19.3583 7.74311 17.6991 7.74311 15.6712C7.74311 13.6432 9.40232 11.984 11.4303 11.984C13.2124 11.984 14.6258 13.2131 15.056 14.8108C16.0392 14.3807 17.1453 14.4421 18.1286 14.8108C18.4973 13.1516 19.9722 11.9226 21.7543 11.9226C23.7822 11.9226 25.4414 13.5818 25.4414 15.6097C25.5029 17.6991 23.8437 19.3583 21.7543 19.3583Z" fill="white"/>
<path d="M45.7693 25.6696H42V7.3029H45.9068V19.171L54.4083 7.3029H58.4252V25.6696H54.5183V13.3609L45.7693 25.6696Z" fill="white"/>
<path d="M78.5512 25.6696H74.6169V17.9594H65.9503V25.6696H62.0435V7.3029H65.9503V14.5174H74.6169V7.3029H78.5512V25.6696Z" fill="white"/>
<path d="M94.0532 25.6696H90.1463V23.8246C84.5888 23.3565 81.2872 20.7406 81.2872 16.5C81.2872 12.287 84.5888 9.67101 90.1463 9.17536V7.3029H94.0532V9.17536C99.6108 9.67101 102.912 12.2594 102.912 16.5C102.912 20.7406 99.6108 23.3565 94.0532 23.8246V25.6696ZM98.9229 16.5C98.9229 14.4072 97.2171 13.058 94.0532 12.6725V20.3275C97.2171 19.9696 98.9229 18.5928 98.9229 16.5ZM85.3041 16.5C85.3041 18.5928 86.9824 19.942 90.1463 20.3275V12.6725C86.9824 13.058 85.3041 14.4348 85.3041 16.5Z" fill="white"/>
<path d="M114.398 26C108.868 26 104.824 22.0348 104.824 16.5C104.824 10.9652 108.868 7 114.398 7C119.956 7 124 10.9652 124 16.5C124 22.0348 119.956 26 114.398 26ZM114.398 22.5304C117.782 22.5304 119.983 19.9145 119.983 16.5C119.983 13.058 117.782 10.4696 114.398 10.4696C111.014 10.4696 108.84 13.058 108.84 16.5C108.84 19.9145 111.014 22.5304 114.398 22.5304Z" fill="white"/>
<path d="M135.785 25.9474C130.272 25.9474 126 22.103 126 16.4737C126 10.8444 130.272 7 135.785 7C139.837 7 142.18 9.1968 143.475 11.476L140.113 13.1236C139.341 11.6407 137.687 10.46 135.785 10.46C132.45 10.46 130.024 13.0137 130.024 16.4737C130.024 19.9336 132.45 22.4874 135.785 22.4874C137.687 22.4874 139.341 21.3341 140.113 19.8238L143.475 21.4439C142.152 23.7231 139.837 25.9474 135.785 25.9474Z" fill="#4AAC33"/>
<path d="M153.992 25.6178H150.05V10.7346H144.675V7.30206H159.339V10.7346H153.992V25.6178Z" fill="#4AAC33"/>
<path d="M177.216 25.6178H172.751L171.621 22.5149H163.738L162.58 25.6178H158.115L165.226 7.30206H170.132L177.216 25.6178ZM170.546 19.0824L167.679 11.2014L164.813 19.0824H170.546Z" fill="#4AAC33"/>
<path d="M182.828 25.6178H178.914V7.30206H187.514C191.511 7.30206 193.688 9.99314 193.688 13.206C193.688 16.3913 191.483 19.1098 187.514 19.1098H182.828V25.6178ZM186.99 15.6773C188.534 15.6773 189.692 14.7162 189.692 13.206C189.692 11.6682 188.534 10.7346 186.99 10.7346H182.828V15.6773H186.99Z" fill="#4AAC33"/>
<path d="M204.301 25.6178H200.359V10.7346H194.984V7.30206H209.648V10.7346H204.301V25.6178Z" fill="#4AAC33"/>
<path d="M227.92 25.9474C226.56 25.9474 225.32 25.7094 224.199 25.2334C223.078 24.7574 222.113 24.0984 221.305 23.2563C220.515 22.3959 219.899 21.389 219.458 20.2357C219.017 19.0824 218.797 17.8284 218.797 16.4737C218.797 15.119 219.017 13.865 219.458 12.7117C219.899 11.5584 220.515 10.5606 221.305 9.71853C222.113 8.85812 223.078 8.18993 224.199 7.71396C225.32 7.23799 226.56 7 227.92 7C229.28 7 230.52 7.23799 231.641 7.71396C232.762 8.18993 233.718 8.85812 234.508 9.71853C235.316 10.5606 235.941 11.5584 236.382 12.7117C236.823 13.865 237.044 15.119 237.044 16.4737C237.044 17.8284 236.823 19.0824 236.382 20.2357C235.941 21.389 235.316 22.3959 234.508 23.2563C233.718 24.0984 232.762 24.7574 231.641 25.2334C230.52 25.7094 229.28 25.9474 227.92 25.9474ZM227.92 23.9153C228.949 23.9153 229.877 23.7323 230.704 23.3661C231.531 22.9817 232.238 22.46 232.826 21.8009C233.415 21.1236 233.865 20.3364 234.177 19.4394C234.508 18.524 234.673 17.5355 234.673 16.4737C234.673 15.4119 234.508 14.4233 234.177 13.508C233.865 12.5927 233.415 11.8055 232.826 11.1465C232.238 10.4874 231.531 9.97483 230.704 9.6087C229.877 9.22426 228.949 9.03204 227.92 9.03204C226.891 9.03204 225.954 9.22426 225.109 9.6087C224.282 9.97483 223.574 10.4874 222.986 11.1465C222.398 11.8055 221.948 12.5927 221.636 13.508C221.323 14.4233 221.167 15.4119 221.167 16.4737C221.167 17.5355 221.323 18.524 221.636 19.4394C221.948 20.3364 222.398 21.1236 222.986 21.8009C223.574 22.46 224.282 22.9817 225.109 23.3661C225.954 23.7323 226.891 23.9153 227.92 23.9153Z" fill="#4AAC33"/>
<path d="M246.351 24.1076C247.067 24.1076 247.692 23.9703 248.225 23.6957C248.776 23.4027 249.236 23.0275 249.603 22.5698C249.989 22.0938 250.274 21.5446 250.458 20.9222C250.66 20.2998 250.761 19.6407 250.761 18.9451C250.761 18.286 250.66 17.6545 250.458 17.0503C250.274 16.4279 249.989 15.8879 249.603 15.4302C249.236 14.9542 248.776 14.5789 248.225 14.3043C247.692 14.0114 247.067 13.865 246.351 13.865C245.634 13.865 245 14.0114 244.449 14.3043C243.897 14.5789 243.429 14.9542 243.043 15.4302C242.675 15.8879 242.391 16.4279 242.188 17.0503C242.005 17.6545 241.913 18.286 241.913 18.9451C241.913 19.6407 242.005 20.2998 242.188 20.9222C242.391 21.5446 242.675 22.0938 243.043 22.5698C243.429 23.0275 243.897 23.4027 244.449 23.6957C245 23.9703 245.634 24.1076 246.351 24.1076ZM246.351 25.9474C245.322 25.9474 244.403 25.7643 243.594 25.3982C242.786 25.0137 242.097 24.4828 241.527 23.8055C240.957 23.1281 240.516 22.3318 240.204 21.4165C239.91 20.4828 239.763 19.4668 239.763 18.3684C239.763 16.7574 239.91 15.3753 240.204 14.222C240.498 13.0503 240.93 12.0801 241.499 11.3112C242.087 10.5423 242.813 9.94737 243.677 9.52632C244.559 9.08696 245.579 8.79405 246.736 8.6476C247.472 8.53776 248.078 8.43707 248.556 8.34554C249.033 8.2357 249.41 8.12586 249.686 8.01602C249.98 7.90618 250.182 7.79634 250.292 7.6865C250.421 7.57666 250.485 7.44851 250.485 7.30206H252.497C252.497 7.85126 252.332 8.30892 252.001 8.67506C251.67 9.02288 251.248 9.30664 250.733 9.52632C250.219 9.746 249.649 9.91991 249.024 10.0481C248.418 10.1762 247.83 10.2769 247.26 10.3501C246.268 10.4966 245.441 10.7071 244.779 10.9817C244.118 11.2563 243.576 11.5858 243.153 11.9703C242.731 12.3547 242.4 12.7941 242.161 13.2883C241.94 13.7643 241.775 14.286 241.665 14.8535C241.904 14.4691 242.188 14.1121 242.519 13.7826C242.85 13.4348 243.227 13.1327 243.649 12.8764C244.072 12.6201 244.531 12.4188 245.028 12.2723C245.542 12.1076 246.093 12.0252 246.681 12.0252C247.619 12.0252 248.473 12.2082 249.245 12.5744C250.017 12.9405 250.669 13.4439 251.202 14.0847C251.753 14.7071 252.176 15.4394 252.47 16.2815C252.764 17.1236 252.911 18.0114 252.911 18.9451C252.911 19.897 252.764 20.8032 252.47 21.6636C252.176 22.5057 251.744 23.2471 251.174 23.8879C250.605 24.5103 249.916 25.0137 249.107 25.3982C248.298 25.7643 247.38 25.9474 246.351 25.9474Z" fill="#4AAC33"/>
<path d="M256.03 28.9405C256.177 29.0137 256.36 29.0687 256.581 29.1053C256.801 29.1419 256.994 29.1602 257.16 29.1602C257.619 29.1602 258.005 29.0595 258.317 28.8581C258.63 28.6751 258.905 28.3089 259.144 27.7597L260.026 25.7551L254.458 12.3547H256.691L261.129 23.2288L265.539 12.3547H267.799L261.129 28.3089C260.725 29.2792 260.192 29.9657 259.53 30.3684C258.869 30.7712 258.097 30.9817 257.215 31C256.994 31 256.737 30.9817 256.443 30.9451C256.149 30.9085 255.901 30.8627 255.699 30.8078L256.03 28.9405Z" fill="#4AAC33"/>
<path d="M271.747 12.3547V16.0892C271.747 16.7117 271.821 17.2243 271.968 17.627C272.115 18.0297 272.326 18.3501 272.602 18.5881C272.896 18.8261 273.254 19 273.677 19.1098C274.1 19.2014 274.586 19.2471 275.138 19.2471C275.836 19.2471 276.498 19.1831 277.122 19.0549C277.747 18.9085 278.262 18.7346 278.666 18.5332V12.3547H280.733V25.6178H278.666V20.2082C278.17 20.4645 277.563 20.6751 276.847 20.8398C276.13 21.0046 275.386 21.087 274.614 21.087C272.868 21.087 271.61 20.7391 270.838 20.0435C270.066 19.3478 269.68 18.2403 269.68 16.7208V12.3547H271.747Z" fill="#4AAC33"/>
<path d="M290.877 25.9474C289.885 25.9474 288.975 25.7826 288.148 25.4531C287.321 25.1053 286.605 24.6293 285.998 24.0252C285.41 23.4027 284.942 22.6705 284.593 21.8284C284.262 20.968 284.096 20.016 284.096 18.9725C284.096 18.0206 284.262 17.1236 284.593 16.2815C284.923 15.4211 285.374 14.6796 285.943 14.0572C286.531 13.4348 287.22 12.9405 288.01 12.5744C288.819 12.2082 289.701 12.0252 290.657 12.0252C291.667 12.0252 292.568 12.2082 293.358 12.5744C294.148 12.9405 294.819 13.4439 295.37 14.0847C295.921 14.7254 296.335 15.4851 296.61 16.3638C296.904 17.2243 297.051 18.1487 297.051 19.1373V19.659H286.274C286.311 20.2815 286.449 20.8764 286.687 21.4439C286.926 21.9931 287.248 22.4783 287.652 22.8993C288.075 23.3021 288.571 23.6316 289.141 23.8879C289.71 24.1259 290.353 24.2449 291.07 24.2449C291.842 24.2449 292.586 24.0984 293.303 23.8055C294.019 23.5126 294.644 23.1007 295.177 22.5698L296.169 23.9153C295.508 24.5744 294.736 25.0778 293.854 25.4256C292.972 25.7735 291.98 25.9474 290.877 25.9474ZM295.012 18.1487C295.012 17.6545 294.92 17.151 294.736 16.6384C294.571 16.1076 294.304 15.6316 293.937 15.2105C293.588 14.7712 293.137 14.4142 292.586 14.1396C292.035 13.865 291.382 13.7277 290.629 13.7277C289.912 13.7277 289.288 13.865 288.755 14.1396C288.222 14.4142 287.772 14.762 287.404 15.1831C287.055 15.6041 286.779 16.0801 286.577 16.611C286.393 17.1236 286.292 17.6362 286.274 18.1487H295.012Z" fill="#4AAC33"/>
<path d="M300.4 25.6178V12.3547H302.467V17.8741H309.413V12.3547H311.48V25.6178H309.413V19.6865H302.467V25.6178H300.4Z" fill="#4AAC33"/>
<path d="M315.608 25.6178V12.3547H317.676V22.4874L324.649 12.3547H326.689V25.6178H324.622V15.2929L317.593 25.6178H315.608Z" fill="#4AAC33"/>
<path d="M336.826 25.9474C335.833 25.9474 334.924 25.7826 334.097 25.4531C333.27 25.1053 332.553 24.6293 331.947 24.0252C331.359 23.4027 330.89 22.6705 330.541 21.8284C330.21 20.968 330.045 20.016 330.045 18.9725C330.045 18.0206 330.21 17.1236 330.541 16.2815C330.872 15.4211 331.322 14.6796 331.892 14.0572C332.48 13.4348 333.169 12.9405 333.959 12.5744C334.768 12.2082 335.65 12.0252 336.605 12.0252C337.616 12.0252 338.516 12.2082 339.306 12.5744C340.097 12.9405 340.767 13.4439 341.319 14.0847C341.87 14.7254 342.283 15.4851 342.559 16.3638C342.853 17.2243 343 18.1487 343 19.1373V19.659H332.223C332.259 20.2815 332.397 20.8764 332.636 21.4439C332.875 21.9931 333.196 22.4783 333.601 22.8993C334.023 23.3021 334.52 23.6316 335.089 23.8879C335.659 24.1259 336.302 24.2449 337.019 24.2449C337.79 24.2449 338.535 24.0984 339.251 23.8055C339.968 23.5126 340.593 23.1007 341.126 22.5698L342.118 23.9153C341.456 24.5744 340.685 25.0778 339.803 25.4256C338.921 25.7735 337.928 25.9474 336.826 25.9474ZM340.96 18.1487C340.96 17.6545 340.868 17.151 340.685 16.6384C340.519 16.1076 340.253 15.6316 339.885 15.2105C339.536 14.7712 339.086 14.4142 338.535 14.1396C337.983 13.865 337.331 13.7277 336.578 13.7277C335.861 13.7277 335.236 13.865 334.703 14.1396C334.17 14.4142 333.72 14.762 333.353 15.1831C333.004 15.6041 332.728 16.0801 332.526 16.611C332.342 17.1236 332.241 17.6362 332.223 18.1487H340.96Z" fill="#4AAC33"/>
</svg>
