<svg xmlns="http://www.w3.org/2000/svg" viewBox="0 0 24 24"><symbol id="a" viewBox="0 0 24 24"><path d="M15.1 22h-6c-.6 0-1-.4-1-1s.4-1 1-1h6c.6 0 1 .4 1 1s-.4 1-1 1Zm4.4-3H4.7c-.3 0-.6-.1-.9-.2-.3-.2-.5-.4-.6-.6-.2-.3-.2-.6-.2-.9 0-.3.1-.6.2-.9.5-.9 1.2-2.7 1.2-5.9v-.8c0-1 .2-2 .6-3 .4-.9 1-1.8 1.7-2.5S8.2 3 9.2 2.6c.9-.4 2-.6 3-.6 4.2 0 7.7 3.5 7.7 7.8v.7c0 3.2.6 4.9 1.2 5.9.2.3.2.6.2.9 0 .3-.1.6-.2.9-.2.3-.4.5-.6.6-.4.1-.7.2-1 .2ZM5.1 17h14c-.6-1.2-1.3-3.3-1.3-6.5v-.7c0-3.2-2.6-5.8-5.7-5.8-.7 0-1.5.1-2.2.4-.7.3-1.3.7-1.8 1.3-.6.5-1 1.1-1.3 1.8-.3.7-.4 1.4-.4 2.2v.8c0 3.2-.7 5.3-1.3 6.5Z"/></symbol><use href="#a"/></svg>