<svg xmlns="http://www.w3.org/2000/svg" viewBox="0 0 24 24"><symbol id="a" viewBox="0 0 24 24"><path d="M22 12c0-5.5-4.5-10-10-10S2 6.5 2 12c0 2.9 1.2 5.5 3.2 7.3l.1.1C7.1 21 9.4 22 12 22c2.6 0 4.9-1 6.7-2.6l.1-.1c2-1.8 3.2-4.4 3.2-7.3ZM4 12c0-4.4 3.6-8 8-8s8 3.6 8 8c0 1.9-.7 3.7-1.8 5.1-.6-.8-1.3-1.4-2.1-1.9-.3-.2-.5-.3-.8-.4.9-.9 1.5-2.1 1.5-3.5 0-2.6-2.1-4.8-4.8-4.8-2.7 0-4.8 2.1-4.8 4.8 0 1.4.6 2.6 1.5 3.5-.3.1-.6.3-.8.4-.8.5-1.5 1.2-2.1 1.9C4.7 15.7 4 13.9 4 12Zm8 2c-1.5 0-2.8-1.2-2.8-2.8 0-1.6 1.2-2.8 2.8-2.8 1.6 0 2.8 1.2 2.8 2.8 0 1.6-1.3 2.8-2.8 2.8Zm-4.7 4.5c.5-.6 1-1.2 1.7-1.6 1.8-1.1 4.2-1.1 6 0 .7.4 1.3 1 1.7 1.6-1.3 1-2.9 1.5-4.7 1.5-1.8 0-3.4-.6-4.7-1.5Z"/></symbol><use href="#a"/></svg>