<svg xmlns="http://www.w3.org/2000/svg" viewBox="0 0 24 24"><symbol id="a" viewBox="0 0 24 24"><path d="M17.375 21.7c-.3 0-.7-.1-1-.3l-4.6-2.9-4.3 2.7c-.7.4-1.5.4-2.2-.1-.7-.5-1-1.3-.8-2.1l1.4-4.8-4.2-3.5c-.6-.5-.8-1.2-.6-2 .2-.7.9-1.2 1.6-1.2l5.4-.3 2-5.1c.1-.3.3-.6.6-.8.6-.4 1.4-.4 2 0 .3.2.5.5.7.9l2 5 5.4.3c.7 0 1.4.5 1.6 1.2.2.7 0 1.5-.6 2l-4.1 3.5 1.3 5.3c.2.7-.1 1.5-.7 1.9-.2.2-.6.3-.9.3Zm-5.6-5.2c.3 0 .7.1.9.3l4.3 2.7-1.2-4.9c-.1-.3-.1-.7 0-1 .1-.3.3-.6.6-.8l3.9-3.2-5-.3c-.3 0-.7-.1-.9-.3-.3-.2-.5-.5-.6-.8l-2-4.9-1.9 4.7c-.1.3-.3.6-.6.8-.3.2-.6.3-1 .3l-5 .3 3.9 3.2c.3.3.5.6.6.9.1.3.1.7 0 1l-1.2 4.9 4.3-2.7c.2-.1.6-.2.9-.2Z"/></symbol><use href="#a"/></svg>