<svg xmlns="http://www.w3.org/2000/svg" width="32" height="32" fill="none" viewBox="0 0 32 32"><path fill="#40B3E0" d="M16 0C7.163 0 0 7.163 0 16s7.163 16 16 16 16-7.163 16-16S24.837 0 16 0Z"/><path fill="#fff" d="m23.785 9.204-2.858 14.408s-.4 1-1.498.52l-6.595-5.056-2.398-1.159-4.037-1.359s-.62-.22-.68-.7c-.06-.479.7-.739.7-.739l16.047-6.295s1.32-.58 1.32.38"/><path fill="#D2E5F1" d="M12.327 23.45s-.192-.017-.432-.777-1.459-4.756-1.459-4.756l9.692-6.155s.56-.34.54 0c0 0 .1.06-.2.34-.3.28-7.614 6.854-7.614 6.854"/><path fill="#B5CFE4" d="m15.363 21.014-2.609 2.379s-.204.154-.427.057l.5-4.417"/></svg>