<svg width="32" height="32" viewBox="0 0 32 32" fill="none" xmlns="http://www.w3.org/2000/svg">
    <path d="M16 0C7.16337 0 0 7.16337 0 16C0 24.8366 7.16337 32 16 32C24.8366 32 32 24.8366 32 16C32 7.16337 24.8366 0 16 0Z" fill="#40B3E0"/>
    <path d="M23.7853 9.20374L20.9274 23.6124C20.9274 23.6124 20.5278 24.6116 19.4287 24.132L12.8339 19.076L10.4359 17.917L6.39919 16.558C6.39919 16.558 5.77969 16.3382 5.71969 15.8586C5.65969 15.379 6.41919 15.1192 6.41919 15.1192L22.4662 8.82424C22.4662 8.82424 23.7852 8.24474 23.7852 9.20399" fill="white"/>
    <path d="M12.3273 23.4505C12.3273 23.4505 12.1348 23.4325 11.8948 22.673C11.6552 21.9136 10.436 17.9168 10.436 17.9168L20.1283 11.7618C20.1283 11.7618 20.6879 11.4221 20.6679 11.7618C20.6679 11.7618 20.7678 11.8218 20.4679 12.1016C20.1683 12.3815 12.8542 18.9561 12.8542 18.9561" fill="#D2E5F1"/>
    <path d="M15.3628 21.0143L12.7544 23.3926C12.7544 23.3926 12.5504 23.5473 12.3274 23.4503L12.8269 19.0328" fill="#B5CFE4"/>
</svg>
